<svg viewBox="0 -26 512 511" xmlns="http://www.w3.org/2000/svg"><path d="m30 10.5c-11.050781 0-20 8.949219-20 20v200c0 11.050781 8.949219 20 20 20h292v-240zm0 0" fill="#ffe781"/><path d="m482 10.5h-160v240h160c11.050781 0 20-8.949219 20-20v-200c0-11.050781-8.949219-20-20-20zm0 0" fill="#e87288"/><path d="m500.648438 366.550781c-5.9375-30.761719-33.777344-56.664062-69.957032-56.039062-12.761718.238281-24.613281-6.511719-31.929687-16.972657l-30.140625-43.039062 33.839844-48.320312c18.289062-26.066407 12.96875-62.039063-12.179688-81.679688-.832031-.648438-1.679688-1.28125-2.550781-1.890625-4.34375 6.203125-115.472657 164.910156-122.492188 174.929687-7.316406 10.460938-19.167969 17.210938-31.929687 16.972657-35.699219-.617188-63.941406 24.859375-69.957032 56.039062-9.5625 49.507813 33.097657 92.160157 82.609376 82.597657 26.917968-5.199219 49.019531-26.988282 54.519531-53.847657 1.839843-8.992187 1.960937-17.761719.621093-26.050781-1.761718-10.898438-.171874-22.070312 6.160157-31.121094l24.738281-35.328125 24.738281 35.328125c6.332031 9.050782 7.921875 20.222656 6.160157 31.121094-1.339844 8.289062-1.21875 17.058594.621093 26.050781 5.5 26.859375 27.601563 48.648438 54.519531 53.847657 49.511719 9.5625 92.160157-33.089844 82.609376-82.597657zm-268.648438 43.949219c-16.539062 0-30-13.460938-30-30s13.460938-30 30-30 30 13.460938 30 30-13.460938 30-30 30zm200 0c-16.539062 0-30-13.460938-30-30s13.460938-30 30-30 30 13.460938 30 30-13.460938 30-30 30zm0 0" fill="#cae9fc"/><path d="m176.25 80.5c5.519531 0 10-4.480469 10-10s-4.480469-10-10-10-10 4.480469-10 10 4.480469 10 10 10zm0 0"/><path d="m96 120.5c-6.375 0-11.375-5.996094-9.660156-12.640625.699218-2.707031 2.582031-5.011719 5.082031-6.265625 4.726563-2.375 10.238281-.824219 15.324219 4.066406 3.273437 3.148438 8.335937 3.863282 12.1875 1.460938 5.804687-3.617188 6.359375-11.34375 1.789062-15.765625-5.074218-4.914063-10.152344-7.691407-14.726562-9.207031v-11.441407c0-4.664062-3.101563-8.902343-7.648438-9.9375-6.542968-1.492187-12.347656 3.441407-12.347656 9.730469v11.71875c-11.640625 4.128906-20 15.246094-20 28.28125 0 16.523438 13.429688 29.972656 29.945312 30 4.492188.007812 8.574219 2.984375 9.707032 7.335938 1.734375 6.65625-3.269532 12.664062-9.652344 12.664062-4.242188 0-8.824219-2.652344-12.902344-7.464844-2.949218-3.480468-7.925781-4.730468-12.023437-2.714844-6.121094 3.007813-7.457031 10.625-3.367188 15.484376 5.34375 6.359374 11.632813 10.792968 18.292969 13.023437v11.464844c0 4.664062 3.101562 8.902343 7.648438 9.9375 6.546874 1.492187 12.351562-3.441407 12.351562-9.730469v-11.71875c11.640625-4.128906 20-15.246094 20-28.28125 0-16.542969-13.457031-30-30-30zm0 0"/><path d="m232.25 340.5c-22.054688 0-40 17.945312-40 40s17.945312 40 40 40 40-17.945312 40-40-17.945312-40-40-40zm0 60c-11.027344 0-20-8.972656-20-20s8.972656-20 20-20 20 8.972656 20 20-8.972656 20-20 20zm0 0"/><path d="m432.25 420.5c22.054688 0 40-17.945312 40-40s-17.945312-40-40-40-40 17.945312-40 40 17.945312 40 40 40zm0-60c11.027344 0 20 8.972656 20 20s-8.972656 20-20 20-20-8.972656-20-20 8.972656-20 20-20zm0 0"/><path d="m482 .5h-452c-16.570312 0-30 13.429688-30 30v200c0 16.570312 13.429688 30 30 30h246.167969l-19.121094 27.308594c-5.6875 8.125-14.511719 12.917968-23.566406 12.703125-40.796875-.652344-73.015625 28.222656-79.949219 64.144531-5.121094 26.511719 3.066406 53.582031 21.898438 72.414062 18.886718 18.882813 45.984374 27.003907 72.425781 21.898438 31.011719-5.988281 56.09375-30.769531 62.421875-61.664062 2.035156-9.941407 2.269531-19.917969.695312-29.648438-1.042968-6.441406-1.109375-15.804688 4.476563-23.789062l16.550781-23.632813 16.546875 23.628906c5.589844 7.988281 5.519531 17.351563 4.480469 23.789063-1.574219 9.734375-1.339844 19.710937.695312 29.652344 6.324219 30.894531 31.410156 55.675781 62.421875 61.664062 5.203125 1.003906 10.425781 1.496094 15.605469 1.496094 21.214844 0 41.675781-8.257813 56.808594-23.390625 18.835937-18.828125 27.023437-45.902344 21.910156-72.421875-6.941406-35.949219-39.265625-64.875-79.96875-64.140625-9.015625.164062-17.859375-4.578125-23.550781-12.707031l-19.121094-27.304688h94.171875c16.570312 0 30-13.433594 30-30v-200c0-16.566406-13.429688-30-30-30zm-182.683594 331.898438c-7.359375 10.519531-10.144531 24.175781-7.839844 38.449218 1.1875 7.332032 1.003907 14.886719-.542968 22.445313-4.648438 22.703125-23.820313 41.636719-46.621094 46.039062-20.289062 3.914063-40.148438-2.0625-54.492188-16.40625-14.339843-14.339843-20.316406-34.195312-16.402343-54.480469 5.058593-26.203124 29.144531-48.445312 59.953125-47.9375 15.742187.296876 30.800781-7.644531 40.308594-21.230468 13.429687-19.179688 104.433593-149.140625 116.175781-165.914063 16.140625 17.035157 18.429687 43.460938 4.664062 63.082031-7.019531 10.023438-95.203125 135.953126-95.203125 135.953126zm130.949219-11.882813c33.804687 0 56.011719 23.039063 60.816406 47.929687 3.910157 20.285157-2.070312 40.148438-16.414062 54.488282-14.339844 14.335937-34.195313 20.3125-54.480469 16.398437-22.800781-4.402343-41.972656-23.335937-46.621094-46.035156-1.546875-7.5625-1.730468-15.117187-.542968-22.453125 2.304687-14.269531-.480469-27.925781-7.839844-38.449219l-20.726563-29.59375 24.414063-34.863281 21.945312 31.335938c9.339844 13.347656 24.039063 21.242187 39.449219 21.242187zm61.734375-90.015625c0 5.523438-4.476562 10-10 10h-93.914062l22.808593-32.574219c1.675781-2.386719 3.175781-4.871093 4.53125-7.425781h26.511719c5.011719 0 9.492188-3.554688 10.207031-8.515625.886719-6.179687-3.882812-11.484375-9.894531-11.484375h-19.84375c3.1875-17.328125-.355469-35.230469-9.613281-50h29.144531c5.011719 0 9.492188-3.554688 10.207031-8.515625.886719-6.179687-3.882812-11.484375-9.894531-11.484375h-48.421875c-.035156-.027344-.070313-.054688-.105469-.078125-2.171875-1.523437-4.863281-2.121094-7.476562-1.660156-2.613282.460937-4.9375 1.9375-6.457032 4.113281l-89.367187 127.625h-260.421875c-5.523438 0-10-4.476562-10-10v-200c0-5.523438 4.476562-10 10-10h282v9.6875c0 5.011719 3.554688 9.492188 8.515625 10.207031 6.179687.886719 11.484375-3.882812 11.484375-9.894531v-10h150c5.523438 0 10 4.476562 10 10zm0 0"/><path d="m312 70.8125v19.375c0 5.011719 3.554688 9.492188 8.515625 10.203125 6.179687.890625 11.484375-3.882813 11.484375-9.890625v-20c0-6.011719-5.304688-10.78125-11.484375-9.894531-4.960937.714843-8.515625 5.195312-8.515625 10.207031zm0 0"/><path d="m312 130.8125v19.375c0 5.011719 3.554688 9.492188 8.515625 10.203125 6.179687.890625 11.484375-3.882813 11.484375-9.890625v-20c0-6.011719-5.304688-10.78125-11.484375-9.894531-4.960937.714843-8.515625 5.195312-8.515625 10.207031zm0 0"/><path d="m262.25 180.5h-86c-5.523438 0-10 4.476562-10 10s4.476562 10 10 10h86c5.523438 0 10-4.476562 10-10s-4.476562-10-10-10zm0 0"/><path d="m262.25 120.5h-86c-5.523438 0-10 4.476562-10 10s4.476562 10 10 10h86c5.523438 0 10-4.476562 10-10s-4.476562-10-10-10zm0 0"/><path d="m442.25 60.5h-60c-5.523438 0-10 4.476562-10 10s4.476562 10 10 10h60c5.523438 0 10-4.476562 10-10s-4.476562-10-10-10zm0 0"/><path d="m262.25 60.5h-46c-5.523438 0-10 4.476562-10 10s4.476562 10 10 10h46c5.523438 0 10-4.476562 10-10s-4.476562-10-10-10zm0 0"/></svg>