<?xml version="1.0" encoding="iso-8859-1"?>
<!-- Generator: Adobe Illustrator 19.0.0, SVG Export Plug-In . SVG Version: 6.00 Build 0)  -->
<svg version="1.1" id="Layer_1" xmlns="http://www.w3.org/2000/svg" xmlns:xlink="http://www.w3.org/1999/xlink" x="0px" y="0px"
	 viewBox="0 0 511.999 511.999" style="enable-background:new 0 0 511.999 511.999;" xml:space="preserve">
<path style="fill:#FF728B;" d="M196.786,357.748C83.906,553.262-87.718,256,138.042,256c-225.761,0-54.136-297.262,58.744-101.747
	c-112.881-195.515,230.368-195.515,117.487,0C427.154-41.262,598.779,256,373.018,256c225.761,0,54.136,297.262-58.744,101.748
	C427.154,553.262,83.906,553.262,196.786,357.748z"/>
<path style="fill:#FF3F62;" d="M373.018,255.858l-114.488-1.54l0.057-0.095l-0.092,0.002l55.78-99.971
	c112.881-195.515-230.368-195.515-117.487,0l55.788,99.985l-0.107-0.001l0.057,0.095l-114.48,2.059
	c-225.759,0.749-53.15,297.439,59.081,101.552l58.361-98.486l0.045,0.08l0.053-0.094l58.815,98.234
	C427.515,553.054,598.779,255.585,373.018,255.858z"/>
<circle style="fill:#FFEB99;" cx="255.711" cy="255.997" r="59.308"/>
<path style="fill:#FFDA44;" d="M226.465,256c0-27.56,18.801-50.725,44.275-57.381c-4.801-1.255-9.838-1.927-15.033-1.927
	c-32.755,0-59.308,26.553-59.308,59.308s26.553,59.308,59.308,59.308c5.195,0,10.231-0.672,15.033-1.927
	C245.265,306.725,226.465,283.561,226.465,256z"/>
<path d="M255.531,410.099c-4.199,0-7.604,3.404-7.604,7.604v31.935c0,4.199,3.404,7.604,7.604,7.604s7.604-3.404,7.604-7.604
	v-31.935C263.134,413.504,259.73,410.099,255.531,410.099z"/>
<path d="M154.387,181.789c1.419,1.179,3.141,1.753,4.852,1.753c2.184,0,4.351-0.936,5.855-2.747
	c2.682-3.232,2.237-8.025-0.995-10.707l-19.579-16.249c-3.232-2.683-8.025-2.237-10.707,0.995
	c-2.683,3.232-2.236,8.025,0.995,10.707L154.387,181.789z"/>
<path d="M122.922,319.255l-28.106,15.219c-3.693,1.999-5.065,6.614-3.066,10.307c1.377,2.542,3.992,3.984,6.693,3.984
	c1.223,0,2.463-0.296,3.614-0.919l28.106-15.219c3.692-1.999,5.065-6.614,3.066-10.307
	C131.229,318.629,126.617,317.256,122.922,319.255z"/>
<path d="M392.432,367.721l-20.262-18.066c-3.134-2.794-7.94-2.519-10.735,0.615c-2.794,3.135-2.519,7.941,0.615,10.735
	l20.262,18.066c1.45,1.293,7.088,3.485,10.735-0.615C395.839,375.32,395.567,370.516,392.432,367.721z"/>
<path d="M255.707,100.887c4.199,0,7.604-3.404,7.604-7.604V61.171c0-4.199-3.404-7.604-7.604-7.604
	c-4.199,0-7.604,3.404-7.604,7.604v32.112C248.103,97.483,251.508,100.887,255.707,100.887z"/>
<path d="M489.585,312.969c-5.064-19.121-17.266-35.049-35.287-46.062c-7.237-4.422-15.365-8.059-24.357-10.904
	c10.397-3.289,19.64-7.639,27.681-13.039c18.179-12.206,29.719-29.619,33.376-50.357c7.658-43.433-20.883-92.869-62.327-107.953
	c-19.788-7.202-40.638-5.914-60.298,3.726c-8.694,4.263-17.081,10.09-25.124,17.446c2.348-10.645,3.202-20.821,2.547-30.481
	c-1.482-21.846-10.792-40.547-26.923-54.083c-33.786-28.349-90.87-28.349-124.654,0c-16.132,13.535-25.441,32.237-26.923,54.083
	c-0.658,9.701,0.205,19.922,2.576,30.615c-13.504-12.368-27.924-20.471-42.849-23.943c-20.863-4.853-41.868-0.737-60.745,11.905
	c-3.49,2.337-4.424,7.059-2.087,10.549c2.337,3.491,7.06,4.424,10.549,2.087c10.664-7.141,27.795-14.624,48.839-9.73
	c24.401,5.677,47.791,26.849,67.639,61.226c2.1,3.638,6.751,4.884,10.386,2.783c3.637-2.1,4.883-6.75,2.783-10.386
	c-15.998-27.71-23.372-52.633-21.919-74.077c1.195-17.62,8.639-32.65,21.525-43.463c27.995-23.491,77.109-23.491,105.104,0
	c12.887,10.813,20.33,25.842,21.525,43.463c1.455,21.444-5.92,46.368-21.919,74.077c-0.693,1.2-1.022,2.511-1.02,3.804
	c0.003,2.625,1.367,5.175,3.803,6.583c3.636,2.1,8.286,0.854,10.386-2.783c15.998-27.71,33.896-46.558,53.195-56.02
	c15.857-7.775,32.593-8.844,48.402-3.09c34.341,12.499,58.898,55.033,52.552,91.023c-2.921,16.567-12.215,30.528-26.877,40.373
	c-17.844,11.981-43.115,18.057-75.112,18.057c-4.199,0-7.604,3.404-7.604,7.604c0,4.199,3.404,7.604,7.604,7.604
	c55.94,0,91.756,18.915,100.853,53.258c8.628,32.576-9.79,73.569-41.057,91.381c-3.649,2.078-4.921,6.722-2.843,10.37
	c1.402,2.462,3.97,3.841,6.613,3.841c1.275,0,2.569-0.321,3.757-0.999c17.714-10.09,32.504-26.676,41.644-46.7
	C492.363,354.237,494.702,332.294,489.585,312.969z"/>
<path d="M43.753,127.462c1.373,1.037,6.697,3.333,10.65-1.481c1.028-1.252,2.001-2.576,3.043-3.812
	c2.706-3.211,2.297-8.008-0.913-10.714c-3.211-2.707-8.008-2.296-10.714,0.913c-1.216,1.443-2.409,2.937-3.547,4.444
	C39.739,120.162,40.403,124.931,43.753,127.462z"/>
<path d="M104.796,201.949c-1.416,3.953,0.641,8.306,4.595,9.721l82.117,29.412c-0.547,2.394-0.97,4.832-1.253,7.315h-25.919
	c-4.199,0-7.604,3.404-7.604,7.604c0,4.199,3.404,7.604,7.604,7.604h25.919c0.671,5.901,2.116,11.568,4.225,16.904l-38.856,21.041
	c-3.692,1.999-5.064,6.613-3.066,10.307c3.033,5.607,9.157,3.689,10.307,3.066l38.773-20.995
	c4.349,6.297,9.749,11.809,15.943,16.294l-11.529,19.456c-2.141,3.612-1.083,8.524,2.665,10.417
	c5.126,2.589,8.998-0.269,10.417-2.665l11.693-19.732c5.372,2.263,11.104,3.828,17.079,4.618l0.022,63.457
	c0.001,4.198,3.405,7.601,7.604,7.601h0.003c4.199-0.001,7.603-3.406,7.601-7.606l-0.022-63.165
	c14.334-1.365,27.356-7.276,37.622-16.265l41.776,37.248c1.45,1.293,6.507,3.364,10.735-0.615c3.058-2.878,2.519-7.941-0.615-10.735
	l-41.655-37.141c2.147-2.971,4.058-6.121,5.701-9.429l68.158,24.141c0.839,0.297,7.27,1.957,9.706-4.629
	c1.457-3.939-0.67-8.303-4.629-9.706l-68.077-24.112c0.501-2.125,0.9-4.287,1.192-6.484h18.38c4.199,0,7.604-3.404,7.604-7.604
	s-3.404-7.604-7.604-7.604h-18.083c-0.78-8.262-3.069-16.087-6.587-23.205l74.694-47.161c3.55-2.242,4.612-6.938,2.37-10.489
	c-2.242-3.551-6.939-4.612-10.489-2.37L308.5,213.677c-3.377-4.124-7.238-7.837-11.492-11.057l11.096-19.886
	c2.047-3.667,0.732-8.299-2.935-10.345s-8.299-0.732-10.345,2.935l-10.915,19.561c-6.404-2.861-13.33-4.754-20.6-5.468v-60.65
	c0-4.199-3.404-7.604-7.604-7.604c-4.199,0-7.604,3.404-7.604,7.604v60.895c-14.738,1.905-27.985,8.612-38.114,18.512l-26.16-21.713
	c-3.232-2.683-8.026-2.237-10.707,0.995c-2.683,3.232-2.236,8.025,0.995,10.707l26.269,21.803c-1.398,2.178-2.683,4.433-3.825,6.773
	l-82.041-29.384C110.569,195.94,106.213,197.995,104.796,201.949z M256.721,204.296c28.51,0,51.704,23.194,51.704,51.704
	s-23.194,51.704-51.704,51.704c-28.51,0-51.704-23.194-51.704-51.704S228.211,204.296,256.721,204.296z"/>
<path d="M406.053,416.59c-21.483,1.528-53.711-8.114-85.193-62.644c-2.1-3.638-6.751-4.883-10.386-2.783
	c-3.637,2.1-4.883,6.75-2.783,10.386c15.998,27.71,23.372,52.633,21.919,74.077c-1.195,17.62-8.639,32.65-21.524,43.463
	c-27.995,23.491-77.109,23.491-105.105,0c-12.887-10.813-20.33-25.842-21.525-43.463c-1.455-21.444,5.92-46.368,21.919-74.077
	c0.693-1.2,1.022-2.511,1.02-3.804c-0.003-2.625-1.367-5.176-3.803-6.583c-3.637-2.101-8.287-0.854-10.386,2.783
	c-15.998,27.71-33.896,46.558-53.194,56.02c-15.857,7.775-32.594,8.844-48.402,3.09c-34.341-12.499-58.898-55.033-52.552-91.023
	c2.922-16.567,12.215-30.528,26.877-40.373c17.844-11.981,43.115-18.057,75.112-18.057c4.199,0,7.604-3.404,7.604-7.604
	s-3.404-7.604-7.604-7.604c-45.442,0-77.646-12.423-93.129-35.927c-12.169-18.474-13.205-42.897-2.845-67.01
	c1.658-3.859-0.126-8.329-3.984-9.988c-3.859-1.66-8.329,0.127-9.988,3.984c-12.416,28.897-10.916,58.558,4.117,81.38
	c8.283,12.574,23.187,26.705,49.917,35.163c-10.395,3.289-19.639,7.639-27.679,13.038c-18.179,12.206-29.719,29.619-33.376,50.357
	c-7.658,43.433,20.884,92.869,62.327,107.953c19.789,7.202,40.639,5.914,60.298-3.726c8.694-4.263,17.081-10.09,25.125-17.446
	c-2.348,10.645-3.202,20.821-2.547,30.481c1.481,21.846,10.791,40.547,26.923,54.083c16.892,14.174,39.61,21.262,62.327,21.262
	s45.435-7.088,62.327-21.262c16.131-13.535,25.441-32.237,26.923-54.083c0.655-9.668-0.2-19.85-2.551-30.501
	c4.568,4.181,9.246,7.869,14.025,11.056c16.326,10.887,33.439,15.776,50.872,14.55c4.189-0.296,7.344-3.933,7.048-8.122
	C413.877,419.449,410.242,416.292,406.053,416.59z"/>
<g>
</g>
<g>
</g>
<g>
</g>
<g>
</g>
<g>
</g>
<g>
</g>
<g>
</g>
<g>
</g>
<g>
</g>
<g>
</g>
<g>
</g>
<g>
</g>
<g>
</g>
<g>
</g>
<g>
</g>
</svg>
