<svg height="512pt" viewBox="0 0 512 512" width="512pt" xmlns="http://www.w3.org/2000/svg"><path d="m352.492188 175.089844h-29.917969l-3.992188-21.410156c-2.578125-13.824219-14.640625-23.84375-28.703125-23.84375h-67.757812c-14.0625 0-26.125 10.019531-28.703125 23.84375l-3.992188 21.410156h-29.914062c-17.855469 0-32.332031 14.472656-32.332031 32.328125v127.582031c0 17.855469 14.476562 32.328125 32.332031 32.328125h192.980469c17.855468 0 32.328124-14.472656 32.328124-32.328125v-127.582031c0-17.855469-14.476562-32.328125-32.328124-32.328125zm0 0" fill="#65687f"/><path d="m178.371094 367.332031h-18.859375c-17.855469 0-32.332031-14.476562-32.332031-32.332031v-127.585938c0-17.851562 14.476562-32.320312 32.332031-32.320312h18.859375c-17.867188 0-32.332032 14.46875-32.332032 32.320312v127.585938c0 17.855469 14.464844 32.332031 32.332032 32.332031zm0 0" fill="#3a3d51"/><path d="m333.296875 263.785156c0 22.011719-9.195313 41.875-23.957031 55.945313-13.871094 13.230469-32.65625 21.351562-53.339844 21.351562-42.683594 0-77.296875-34.601562-77.296875-77.296875 0-42.683594 34.613281-77.285156 77.296875-77.285156 20.683594 0 39.46875 8.121094 53.339844 21.351562 14.761718 14.074219 23.957031 33.933594 23.957031 55.933594zm0 0" fill="#d8edf7"/><path d="m333.296875 263.785156c0 22.011719-9.195313 41.875-23.957031 55.945313-14.761719-14.070313-23.957032-33.933594-23.957032-55.945313 0-22 9.195313-41.859375 23.957032-55.933594 14.761718 14.074219 23.957031 33.933594 23.957031 55.933594zm0 0" fill="#dae6ea"/><path d="m256 7.605469c-137.1875 0-248.394531 111.207031-248.394531 248.394531s111.207031 248.394531 248.394531 248.394531 248.394531-111.207031 248.394531-248.394531-111.207031-248.394531-248.394531-248.394531zm-203.714844 248.394531c0-69.039062 34.351563-130.050781 86.890625-166.894531l194.460938 355.277343c-23.925781 9.871094-50.144531 15.332032-77.636719 15.332032-112.507812 0-203.714844-91.207032-203.714844-203.714844zm320.53125 166.898438-194.460937-355.277344c23.929687-9.875 50.148437-15.335938 77.644531-15.335938 112.507812 0 203.703125 91.207032 203.703125 203.714844 0 69.042969-34.347656 130.054688-86.886719 166.898438zm0 0" fill="#ff5a73"/><path d="m370.957031 184.214844 26.335938-9.050782c7.90625-2.71875 7.90625-13.90625 0-16.621093l-26.335938-9.050781c-2.5625-.878907-4.574219-2.894532-5.457031-5.457032l-9.046875-26.335937c-2.71875-7.90625-13.90625-7.90625-16.625 0l-9.046875 26.335937c-.882812 2.5625-2.894531 4.574219-5.457031 5.457032l-26.335938 9.050781c-7.90625 2.714843-7.90625 13.902343 0 16.621093l26.335938 9.050782c2.5625.878906 4.574219 2.890625 5.457031 5.453125l9.050781 26.335937c2.714844 7.910156 13.902344 7.910156 16.621094 0l9.050781-26.335937c.878906-2.5625 2.890625-4.574219 5.453125-5.453125zm0 0" fill="#ffe37d"/><path d="m430.757812 137.171875c-23.339843-34.265625-55.851562-60.722656-94.027343-76.511719-3.882813-1.605468-8.328125.238282-9.933594 4.117188s.238281 8.328125 4.121094 9.933594c35.425781 14.65625 65.605469 39.214843 87.269531 71.023437 22.1875 32.566406 33.914062 70.695313 33.914062 110.265625 0 61.035156-28.546874 118.589844-76.78125 155.632812l-20.140624-36.796874c20.769531-1.390626 37.246093-18.71875 37.246093-39.835938v-127.585938c0-7.324218-2.023437-14.421874-5.722656-20.570312l13.0625-4.488281c6.722656-2.3125 11.0625-8.394531 11.0625-15.503907 0-7.105468-4.339844-13.191406-11.0625-15.503906l-26.335937-9.050781c-.347657-.117187-.617188-.386719-.734376-.734375l-9.050781-26.335938c-2.308593-6.722656-8.398437-11.066406-15.503906-11.0625-7.105469 0-13.191406 4.34375-15.5 11.0625l-9.050781 26.335938c-.121094.347656-.386719.617188-.738282.738281l-.164062.054688c-6.160156-12.15625-18.703125-20.125-32.804688-20.125h-67.765624c-1.683594 0-3.351563.132812-5.003907.359375l-27.921875-51.011719c21.378906-7.761719 43.8125-11.6875 66.808594-11.6875 15.9375 0 31.777344 1.914063 47.089844 5.6875 4.074218 1.007813 8.195312-1.484375 9.203125-5.5625 1.003906-4.078125-1.484375-8.195313-5.5625-9.203125-16.5-4.070312-33.570313-6.132812-50.730469-6.132812-27.855469 0-54.957031 5.355468-80.542969 15.914062-1.996093.824219-3.546875 2.460938-4.269531 4.5-.71875 2.039062-.535156 4.285156.5 6.183594l194.460938 355.277344c1.035156 1.894531 2.835937 3.261718 4.941406 3.753906.570312.132812 1.148437.195312 1.726562.195312 1.550782 0 3.078125-.472656 4.367188-1.375 56.433594-39.578125 90.125-104.296875 90.125-173.128906 0-42.636719-12.636719-83.726562-36.550782-118.828125zm-92.789062 9.335937 9.050781-26.335937c.089844-.257813.277344-.796875 1.121094-.796875s1.03125.539062 1.121094.796875l9.046875 26.335937c1.65625 4.8125 5.363281 8.523438 10.175781 10.175782l26.335937 9.050781c.261719.085937.800782.273437.800782 1.117187 0 .847657-.539063 1.03125-.800782 1.121094l-26.335937 9.050782c-4.8125 1.652343-8.519531 5.363281-10.175781 10.175781l-9.046875 26.332031c-.089844.261719-.277344.800781-1.121094.800781s-1.03125-.539062-1.121094-.800781l-9.050781-26.335938c-1.652344-4.8125-5.363281-8.519531-10.171875-10.171874l-26.335937-9.050782c-.261719-.089844-.800782-.273437-.800782-1.121094 0-.84375.539063-1.03125.800782-1.121093l26.335937-9.046875c4.808594-1.652344 8.519531-5.363282 10.171875-10.175782zm-48.085938-9.070312c7.527344 0 14.292969 3.875 18.175782 9.945312l-11.542969 3.96875c-6.71875 2.308594-11.0625 8.394532-11.0625 15.5 0 7.109376 4.34375 13.195313 11.0625 15.503907l26.335937 9.050781c.347657.117188.617188.386719.738282.734375l9.046875 26.335937c2.3125 6.71875 8.394531 11.0625 15.503906 11.0625 7.105469 0 13.191406-4.34375 15.503906-11.0625l8.808594-25.640624c3.066406 4.191406 4.765625 9.289062 4.765625 14.578124v127.585938c0 13.636719-11.09375 24.726562-24.730469 24.726562h-5.582031l-23.957031-43.769531c11.601562-14.867187 17.953125-33.183593 17.953125-52.171875 0-46.808594-38.089844-84.890625-84.902344-84.890625-2.617188 0-5.246094.136719-7.863281.378907l-22.898438-41.835938zm-33.625 56.671875c38.308594.140625 69.4375 31.339844 69.4375 69.675781 0 13.324219-3.816406 26.242188-10.863281 37.335938zm0 0"/><path d="m145.847656 85.453125c-1.039062-1.898437-2.835937-3.261719-4.945312-3.753906-2.105469-.492188-4.320313-.0625-6.09375 1.179687-56.433594 39.578125-90.128906 104.296875-90.128906 173.121094 0 116.523438 94.796874 211.320312 211.320312 211.320312 27.859375 0 54.957031-5.351562 80.539062-15.910156 1.996094-.824218 3.550782-2.460937 4.269532-4.496094.71875-2.039062.539062-4.285156-.5-6.183593zm118.164063 247.5625c-2.652344.300781-5.324219.464844-8.011719.464844-38.429688 0-69.691406-31.265625-69.691406-69.695313 0-16.097656 5.644531-31.671875 15.714844-44.023437zm-8.011719 119.09375c-108.136719 0-196.109375-87.972656-196.109375-196.109375 0-61.03125 28.546875-118.582031 76.78125-155.628906l36.738281 67.117187h-13.898437c-22.023438 0-39.9375 17.914063-39.9375 39.925781v85.261719c0 4.199219 3.40625 7.601563 7.605469 7.601563 4.199218 0 7.601562-3.402344 7.601562-7.601563v-85.261719c0-13.628906 11.09375-24.714843 24.730469-24.714843h22.222656l12.511719 22.859375c-14.773438 15.667968-23.148438 36.566406-23.148438 58.226562 0 46.816406 38.089844 84.902344 84.902344 84.902344 5.316406 0 10.601562-.5 15.785156-1.472656l6.847656 12.511718h-119.121093c-13.636719 0-24.730469-11.089843-24.730469-24.726562v-11.90625c0-4.199219-3.402344-7.605469-7.601562-7.605469-4.199219 0-7.605469 3.40625-7.605469 7.605469v11.90625c0 22.019531 17.914062 39.9375 39.9375 39.9375h127.445312l35.847657 65.488281c-21.375 7.757813-43.808594 11.683594-66.804688 11.683594zm0 0"/><path d="m437.019531 74.980469c-48.351562-48.351563-112.640625-74.980469-181.019531-74.980469s-132.667969 26.628906-181.019531 74.980469c-48.351563 48.351562-74.980469 112.640625-74.980469 181.019531s26.628906 132.667969 74.980469 181.019531c48.351562 48.351563 112.640625 74.980469 181.019531 74.980469s132.667969-26.628906 181.019531-74.980469c48.351563-48.351562 74.980469-112.640625 74.980469-181.019531s-26.628906-132.667969-74.980469-181.019531zm-10.753906 351.285156c-45.480469 45.480469-105.949219 70.527344-170.265625 70.527344s-124.785156-25.046875-170.265625-70.527344-70.527344-105.949219-70.527344-170.265625 25.046875-124.785156 70.527344-170.265625 105.949219-70.527344 170.265625-70.527344 124.785156 25.046875 170.265625 70.527344 70.527344 105.949219 70.527344 170.265625-25.046875 124.785156-70.527344 170.265625zm0 0"/></svg>